<?xml version="1.0" standalone="no"?>
<!DOCTYPE svg PUBLIC "-//W3C//DTD SVG 20010904//EN"
 "http://www.w3.org/TR/2001/REC-SVG-20010904/DTD/svg10.dtd">
<svg version="1.0" xmlns="http://www.w3.org/2000/svg"
 width="2222.000000pt" height="2222.000000pt" viewBox="0 0 2222.000000 2222.000000"
 preserveAspectRatio="xMidYMid meet">
<metadata>
Created by potrace 1.11, written by Peter Selinger 2001-2013
</metadata>
<g transform="translate(0.000000,2222.000000) scale(0.100000,-0.100000)"
fill="#000000" stroke="none">
<path d="M0 11110 l0 -11040 11110 0 11110 0 0 11040 0 11040 -11110 0 -11110
0 0 -11040z m9844 1585 c324 -146 591 -267 594 -270 3 -2 -5 -53 -18 -112 -34
-161 -31 -272 13 -543 68 -422 89 -745 88 -1400 0 -447 -3 -578 -32 -1290 -9
-217 -9 -298 0 -340 39 -189 154 -194 427 -19 167 106 196 119 246 107 167
-38 351 75 507 312 187 284 386 791 435 1110 31 197 35 212 76 251 45 43 167
96 335 146 66 20 123 39 127 42 4 4 19 62 33 130 24 118 27 127 83 204 31 45
95 121 142 170 l85 89 799 -359 798 -358 -5 -110 c-15 -321 -157 -642 -373
-843 l-83 -77 -20 -117 c-12 -64 -39 -185 -61 -270 -120 -456 -143 -685 -89
-896 39 -155 140 -279 279 -344 l70 -33 0 -931 c0 -983 -1 -1006 -47 -1163
-109 -378 -420 -696 -795 -814 -182 -58 -166 -57 -1347 -57 -730 0 -1115 4
-1176 11 -259 32 -431 119 -488 248 -16 35 -21 70 -22 151 -3 121 -21 186
-186 662 -73 208 -97 268 -109 264 -8 -2 -92 -36 -187 -75 -438 -179 -845
-299 -1178 -347 -163 -24 -429 -24 -549 0 -336 66 -555 253 -664 568 -34 98
-36 112 -44 298 -5 107 -18 290 -30 405 -16 163 -22 322 -28 710 -4 275 -8
501 -9 501 0 1 -28 13 -60 28 -77 34 -182 61 -301 76 -311 38 -364 52 -422
107 -42 40 -52 84 -52 233 0 214 25 273 229 560 283 398 428 636 454 744 17
70 63 158 130 251 96 132 155 264 216 485 54 197 69 301 69 505 0 195 -12 289
-59 450 -36 122 -43 172 -56 370 -12 203 -2 609 15 601 180 -83 296 -109 476
-109 213 0 352 36 730 190 221 90 412 162 435 163 6 0 275 -119 599 -265z
m-2747 -6447 c-2 -13 -4 -3 -4 22 0 25 2 35 4 23 2 -13 2 -33 0 -45z"/>
</g>
</svg>
