<?xml version="1.0" encoding="utf-8"?>
<!-- Generator: Adobe Illustrator 21.1.0, SVG Export Plug-In . SVG Version: 6.00 Build 0)  -->
<svg version="1.1" id="Layer_1" xmlns="http://www.w3.org/2000/svg" xmlns:xlink="http://www.w3.org/1999/xlink" x="0px" y="0px"
	 viewBox="0 0 33 50.4" style="enable-background:new 0 0 33 50.4;" xml:space="preserve">
<style type="text/css">
	.st0{display:none;fill:#2B3544;}
	.st1{fill:#C75C5C;}
	.st2{opacity:0.2;fill:#231F20;enable-background:new    ;}
	.st3{fill:#4F5D73;}
	.st4{opacity:0.2;}
	.st5{fill:#231F20;}
	.st6{fill:#FFFFFF;}
	.st7{fill:#E0E0D1;}
	.st8{fill:url(#path3757_1_);}
	.st9{stroke:#AAAAAA;stroke-width:1.5503;}
	.st10{fill:#AAAAAA;}
</style>
<rect x="-154.5" y="-1435.8" class="st0" width="608" height="1984"/>
<path class="st1" d="M16.5,1.4"/>
<g>
	<path class="st2" d="M16.5,32.4c-0.3,0-0.5-0.1-0.7-0.3L0,16.5l2.7-1.4l13.7,14.8L32,15.7c0.1,0.1-0.1-1.4,0-1.1
		c0.2,0.4,0.8,1.6,1,1.9L17.2,32.1C17,32.3,16.8,32.4,16.5,32.4z"/>
</g>
<g>
	<path class="st3" d="M16.5,31.3c-0.3,0-0.5-0.1-0.7-0.3L0,16.5h3l13.5,12.4L32,14.6c0.1,0.1,0.3,0.5,0.4,0.8
		c0.2,0.4,0.3,0.8,0.5,1.1L17.2,31C17,31.2,16.8,31.3,16.5,31.3z"/>
</g>
<g class="st4">
	<path class="st5" d="M26.5,15.8c-0.1-0.3-0.5-0.5-0.7-0.7c-0.1-0.1-0.8,1.4-1,1.4c-0.4,0-0.4,0.3-0.6,0.7l-7.3,12.9L9.5,17.2
		c-0.2-0.3,0.1-2.1-0.3-2.1c-0.1,0-0.5-0.8-0.7-0.7c-0.2,0.1-0.6-0.3-0.7,0c-0.1,0.3-2.2-0.3-2.1,0l9.6,17.4c1-0.2,1.9-0.2,3-0.2
		l8.7-15.8C27.3,15.5,26.5,16.1,26.5,15.8z"/>
</g>
<g>
	<path class="st3" d="M16.5,31.3c-0.4,0-0.8-0.2-0.9-0.5l-8-14.2c-0.1-0.3,0.1-0.8,0.1-1.2c0.1-0.3,0.2-0.6,0.4-0.8
		c0.1-0.1,0.3-0.1,0.5-0.1c0.4,0,0.4,0.3,0.6,0.7L16.5,28l7.3-12.8c0.2-0.3,0.2-0.7,0.6-0.7c0.1,0,0.3,0.1,0.5,0.1
		c0.2,0.1,0.3,0.3,0.4,0.8c0.1,0.3,0.3,0.9,0.1,1.2l-8,14.2C17.2,31.1,16.9,31.3,16.5,31.3z"/>
</g>
<g class="st4">
	<g>
		<path class="st5" d="M25.4,17.9h6l1.5-1.4C32.3,8,25.1,1.4,16.5,1.4C21.4,1.4,25.4,8.7,25.4,17.9z"/>
	</g>
	<g>
		<path class="st5" d="M16.5,1.4C8,1.4,0.8,8.2,0,16.5l1.5,1.4h6C7.6,8.7,11.5,1.4,16.5,1.4z"/>
	</g>
	<g>
		<path class="st5" d="M7.6,17.9h17.9c0-9.1-4-16.5-8.9-16.5S7.6,8.7,7.6,17.9z"/>
	</g>
</g>
<g>
	<g>
		<path class="st1" d="M25.4,16.5H33C33,7.4,25.6,0,16.5,0C21.4,0,25.4,7.4,25.4,16.5z"/>
	</g>
	<g>
		<path class="st1" d="M16.5,0C7.4,0,0,7.4,0,16.5h7.6C7.6,7.4,11.5,0,16.5,0z"/>
	</g>
	<g>
		<path class="st6" d="M7.6,16.5h17.9c0-9.1-4-16.5-8.9-16.5S7.6,7.4,7.6,16.5z"/>
	</g>
</g>
<g class="st4">
	<circle class="st5" cx="16.5" cy="30.2" r="2.7"/>
</g>
<g>
	<circle class="st7" cx="16.5" cy="30.2" r="2.7"/>
</g>
<g id="g3925" transform="matrix(3.2251973,0,0,3.2251973,-721.49075,-2098.8616)">
	<g id="g3837" transform="translate(51.933174,2.732572)">
		<g id="g3777" transform="translate(-51.232056,0)">
			
				<linearGradient id="path3757_1_" gradientUnits="userSpaceOnUse" x1="181.9536" y1="614.8557" x2="181.9633" y2="613.2189" gradientTransform="matrix(3.2252 0 0 -3.2252 -358.7294 2645.0254)">
				<stop  offset="0" style="stop-color:#333333"/>
				<stop  offset="8.823529e-02" style="stop-color:#AAAAAA"/>
				<stop  offset="0.75" style="stop-color:#AAAAAA"/>
				<stop  offset="1" style="stop-color:#333333"/>
			</linearGradient>
			<path id="path3757" inkscape:connector-curvature="0" sodipodi:nodetypes="cccccccc" class="st8" d="M227.1,662
				c0,0.7-0.9,1.7-0.9,1.7h1.9h0h1.9c0,0-0.9-0.9-0.9-1.7l-1,0L227.1,662z"/>
		</g>
		<path id="rect2985" class="st9" d="M172.7,656.6h8.4c0.2,0,0.3,0.1,0.3,0.3v4.7c0,0.2-0.1,0.3-0.3,0.3h-8.4
			c-0.2,0-0.3-0.1-0.3-0.3v-4.7C172.3,656.7,172.5,656.6,172.7,656.6z"/>
		<rect id="rect3755" x="172.7" y="656.9" class="st6" width="8.4" height="4.7"/>
		<rect id="rect3831" x="175" y="663.5" class="st10" width="3.8" height="0.2"/>
	</g>
</g>
</svg>
